HIERARCHY
ROOT grazing
{
	OFFSET 0.000000 0.000000 0.000000
	CHANNELS 6 Xposition Yposition Zposition Xrotation Yrotation Zrotation
	JOINT Spine_01
	{
		OFFSET -0.129383 138.184219 -44.816219
		CHANNELS 3 Xrotation Yrotation Zrotation
		JOINT Spine_02
		{
			OFFSET 0.032580 -4.184952 28.051395
			CHANNELS 3 Xrotation Yrotation Zrotation
			JOINT Spine_03
			{
				OFFSET 0.047570 -2.923248 35.453762
				CHANNELS 3 Xrotation Yrotation Zrotation
				JOINT Spine_04
				{
					OFFSET 0.044083 1.225815 39.268154
					CHANNELS 3 Xrotation Yrotation Zrotation
					JOINT Neck_Base
					{
						OFFSET -0.000963 3.590073 29.437141
						CHANNELS 3 Xrotation Yrotation Zrotation
						JOINT Neck_01
						{
							OFFSET 0.092703 17.641830 9.943626
							CHANNELS 3 Xrotation Yrotation Zrotation
							JOINT Neck_02
							{
								OFFSET 0.175061 14.629852 15.949150
								CHANNELS 3 Xrotation Yrotation Zrotation
								JOINT Head
								{
									OFFSET 0.180271 14.779541 16.249443
									CHANNELS 3 Xrotation Yrotation Zrotation
									JOINT L_Ear
									{
										OFFSET 7.917662 16.573578 9.239914
										CHANNELS 3 Xrotation Yrotation Zrotation
										End Site
										{
											OFFSET 5.506275 6.600510 -14.525719
										}
									}
									JOINT R_Ear
									{
										OFFSET -7.930379 16.482681 9.390472
										CHANNELS 3 Xrotation Yrotation Zrotation
										End Site
										{
											OFFSET 5.622919 -6.947723 14.317612
										}
									}
									JOINT Jaw
									{
										OFFSET 0.105440 -4.313263 8.478989
										CHANNELS 3 Xrotation Yrotation Zrotation
										End Site
										{
											OFFSET -0.113940 16.777054 -1.843719
										}
									}
								}
							}
						}
					}
					JOINT R_Scapula
					{
						OFFSET -6.757957 17.541504 7.673218
						CHANNELS 3 Xrotation Yrotation Zrotation
						JOINT R_Shoulder
						{
							OFFSET -4.010690 -35.520454 22.008934
							CHANNELS 3 Xrotation Yrotation Zrotation
							JOINT R_Front_UpperLeg
							{
								OFFSET -3.178289 -27.351189 -18.721985
								CHANNELS 3 Xrotation Yrotation Zrotation
								JOINT R_Front_LowerLeg
								{
									OFFSET 1.577043 -39.717815 2.872879
									CHANNELS 3 Xrotation Yrotation Zrotation
									JOINT R_Front_Ankle
									{
										OFFSET 1.212476 -30.536352 2.208710
										CHANNELS 3 Xrotation Yrotation Zrotation
										JOINT R_Front_Hoof
										{
											OFFSET 0.000342 -9.175894 4.108330
											CHANNELS 3 Xrotation Yrotation Zrotation
											End Site
											{
												OFFSET -0.000968 -0.003001 -10.053627
											}
										}
									}
								}
							}
						}
					}
					JOINT L_Scapula
					{
						OFFSET 6.754650 17.542450 7.673592
						CHANNELS 3 Xrotation Yrotation Zrotation
						JOINT L_Shoulder
						{
							OFFSET 2.975042 -35.660225 21.946541
							CHANNELS 3 Xrotation Yrotation Zrotation
							JOINT L_Front_UpperLeg
							{
								OFFSET 1.997639 -26.938614 -19.468323
								CHANNELS 3 Xrotation Yrotation Zrotation
								JOINT L_Front_LowerLeg
								{
									OFFSET -0.859948 -39.609417 -4.310402
									CHANNELS 3 Xrotation Yrotation Zrotation
									JOINT L_Front_Ankle
									{
										OFFSET -0.661089 -30.452604 -3.317894
										CHANNELS 3 Xrotation Yrotation Zrotation
										JOINT L_Front_Hoof
										{
											OFFSET 0.006329 -9.222298 4.002907
											CHANNELS 3 Xrotation Yrotation Zrotation
											End Site
											{
												OFFSET 0.012729 -0.112079 10.052925
											}
										}
									}
								}
							}
						}
					}
				}
			}
		}
		JOINT L_Hip
		{
			OFFSET 14.887411 -7.729385 -12.131313
			CHANNELS 3 Xrotation Yrotation Zrotation
			JOINT L_Back_UpperLeg
			{
				OFFSET 0.000001 -34.478600 8.440956
				CHANNELS 3 Xrotation Yrotation Zrotation
				JOINT L_Back_LowerLeg
				{
					OFFSET -3.102231 -42.369041 -14.583923
					CHANNELS 3 Xrotation Yrotation Zrotation
					JOINT L_Back_Ankle
					{
						OFFSET 1.691245 -33.751545 12.939045
						CHANNELS 3 Xrotation Yrotation Zrotation
						JOINT L_Back_Hoof
						{
							OFFSET 0.582795 -11.035055 3.767303
							CHANNELS 3 Xrotation Yrotation Zrotation
							End Site
							{
								OFFSET 1.784863 0.000005 11.537724
							}
						}
					}
				}
			}
		}
		JOINT R_Hip
		{
			OFFSET -14.887404 -7.729263 -12.131306
			CHANNELS 3 Xrotation Yrotation Zrotation
			JOINT R_Back_UpperLeg
			{
				OFFSET -0.000001 -35.225861 4.378204
				CHANNELS 3 Xrotation Yrotation Zrotation
				JOINT R_Back_LowerLeg
				{
					OFFSET 4.043012 -39.348255 -21.279457
					CHANNELS 3 Xrotation Yrotation Zrotation
					JOINT R_Back_Ankle
					{
						OFFSET -0.850852 -36.025299 3.302155
						CHANNELS 3 Xrotation Yrotation Zrotation
						JOINT R_Back_Hoof
						{
							OFFSET -0.765644 -11.035027 3.734421
							CHANNELS 3 Xrotation Yrotation Zrotation
							End Site
							{
								OFFSET 2.348502 0.000011 -11.436279
							}
						}
					}
				}
			}
		}
		JOINT Tail_01
		{
			OFFSET 0.000002 9.427811 -23.815601
			CHANNELS 3 Xrotation Yrotation Zrotation
			JOINT Tail_02
			{
				OFFSET 1.392921 -20.670601 -20.692398
				CHANNELS 3 Xrotation Yrotation Zrotation
				JOINT Tail_03
				{
					OFFSET 4.432461 -30.496399 -2.871277
					CHANNELS 3 Xrotation Yrotation Zrotation
					JOINT Tail_04
					{
						OFFSET 9.035032 -29.305908 2.692459
						CHANNELS 3 Xrotation Yrotation Zrotation
						JOINT Tail_05
						{
							OFFSET 15.721539 -26.681099 0.529083
							CHANNELS 3 Xrotation Yrotation Zrotation
							End Site
							{
								OFFSET -2.534342 -0.186981 -30.868584
							}
						}
					}
				}
			}
		}
	}
}
MOTION
Frames: 5
Frame Time: 0.033333
0.000000 0.000000 0.000000 0.000006 -0.000000 -0.000000 -0.000015 -0.000000 -0.000000 -0.000022 0.000000 -0.000000 0.000000 0.000000 0.000003 0.000014 -0.000000 -0.000003 0.000021 -0.000000 -0.000000 -0.000035 0.000000 0.000000 0.000009 0.000000 -0.000000 -0.000063 -0.000154 -0.000080 0.000048 0.000157 0.000062 0.000058 0.000152 0.000097 0.000054 0.000154 0.000135 -0.000013 0.000000 0.000001 -0.000025 -0.000069 0.000013 0.000003 -0.000004 0.000000 0.000004 0.000001 0.000006 0.000015 0.000002 0.000003 -0.000003 -0.000073 0.000028 -0.000007 -0.000000 -0.000003 0.000031 0.000113 -0.000005 -0.000032 -0.000002 0.000000 0.000003 -0.000000 0.000001 -0.000012 0.000003 0.000007 -0.000005 0.000099 -0.000052 -0.000009 -0.000001 -0.000002 0.000002 0.000001 0.000002 0.000014 -0.000005 0.000004 0.000021 -0.000000 0.000007 -0.000019 0.000071 -0.000031 -0.000012 0.000000 0.000001 0.000027 -0.000003 -0.000001 -0.000030 0.000008 -0.000008 0.000018 -0.000001 -0.000003 -0.000005 -0.000099 0.000035 -0.000023 -0.000004 0.000003 0.000013 0.000004 -0.000003 -0.000009 0.000003 0.000004 -0.000002 0.000004 -0.000022 0.000001 -0.000009 0.000017 
0.000000 0.000000 0.000000 0.000006 -0.000000 -0.000000 -0.000030 -0.000000 -0.000000 0.011130 -0.026351 -0.001904 0.000001 0.000002 -0.000011 -0.009592 0.022730 -0.001409 -0.069824 -0.022787 0.007421 -0.086079 -0.017783 -0.007231 -0.051340 -0.011462 -0.015497 0.060510 0.015725 -0.012230 0.006265 -0.004178 0.080813 0.011673 -0.166001 -0.085029 0.114243 0.288091 -0.069907 -0.000014 -0.000012 -0.000026 -0.000016 -0.000070 0.000012 -0.000007 -0.000005 -0.000002 -0.000099 0.000096 0.000002 0.000003 -0.000002 0.000004 -0.000004 -0.000073 0.000028 -0.000008 0.000019 -0.000029 0.000029 0.000114 -0.000006 -0.000039 0.000004 0.000005 0.000003 -0.000000 0.000001 -0.000031 0.000013 0.000008 -0.000004 0.000099 -0.000052 -0.000009 -0.000001 -0.000002 -0.033622 0.032852 -0.027006 0.077301 -0.001163 -0.013098 -0.043635 -0.031683 0.040140 -0.000018 0.000072 -0.000030 -0.000013 0.000000 0.000001 -0.036419 0.020691 -0.038264 0.075238 -0.000383 0.015031 -0.038129 -0.026761 0.019722 -0.000008 -0.000101 0.000035 0.033933 -0.119338 -0.749355 0.097241 -0.567675 -0.458666 0.191220 -0.611218 -0.246700 0.316245 -0.532069 -0.111471 0.530291 -0.402699 0.796380 
0.000000 0.000000 0.000000 0.000006 -0.000000 -0.000000 -0.000030 -0.000000 -0.000000 0.021152 -0.044705 -0.003238 0.000001 0.000003 -0.000026 -0.018211 0.038566 -0.002384 -0.138078 -0.049072 0.015866 -0.166830 -0.035265 -0.013981 -0.098545 -0.020970 -0.029912 0.120045 0.034627 -0.025484 0.011817 -0.010414 0.164219 0.044330 -0.650359 -0.331930 0.427991 0.842457 -0.269199 -0.000015 -0.000025 -0.000052 -0.000016 -0.000070 0.000012 -0.000012 -0.000365 -0.005003 -0.000099 0.000095 0.000002 0.000055 0.002343 0.005236 -0.000005 -0.000073 0.000028 -0.000011 0.000039 -0.000056 0.000029 0.000114 -0.000005 -0.000149 -0.003478 -0.005472 0.000003 -0.000000 0.000001 -0.000048 0.002560 0.005897 -0.000004 0.000099 -0.000052 -0.000009 -0.000001 -0.000002 -0.063828 0.059271 -0.048085 0.146651 -0.002218 -0.024851 -0.082731 -0.057041 0.073018 -0.000019 0.000071 -0.000030 -0.000013 0.000000 0.000001 -0.069663 0.037633 -0.069592 0.143958 -0.000723 0.028762 -0.073085 -0.048219 0.034679 -0.000008 -0.000099 0.000035 0.077694 -0.232803 -1.578581 0.206564 -1.180070 -0.994870 0.405916 -1.279293 -0.572329 0.666925 -1.109702 -0.313322 1.079639 -0.821575 1.051568 
0.000000 0.000000 0.000000 0.000006 -0.000000 -0.000000 -0.000037 -0.000000 -0.000000 0.030088 -0.054823 -0.003971 0.000002 0.000005 -0.000041 -0.025901 0.047313 -0.002922 -0.204742 -0.078644 0.025267 -0.242463 -0.052439 -0.020274 -0.141760 -0.028617 -0.043266 0.178604 0.056352 -0.039753 0.016748 -0.018483 0.250137 0.093656 -1.432272 -0.726750 0.897027 1.518096 -0.575078 -0.000017 -0.000037 -0.000078 -0.000011 -0.000070 0.000012 0.000125 -0.005537 -0.012801 -0.000099 0.000095 0.000002 0.000109 0.006147 0.013734 -0.000007 -0.000073 0.000028 -0.000012 0.000058 -0.000084 0.000029 0.000114 -0.000006 -0.000354 -0.009127 -0.014354 0.000002 -0.000000 0.000001 -0.000100 0.006709 0.015457 -0.000005 0.000099 -0.000052 -0.000009 -0.000001 -0.000002 -0.090687 0.078787 -0.062771 0.208200 -0.003164 -0.035281 -0.117353 -0.075594 0.098196 -0.000018 0.000071 -0.000030 -0.000011 0.000000 0.000001 -0.099801 0.049895 -0.093918 0.206486 -0.001014 0.041256 -0.105068 -0.063976 0.044455 -0.000007 -0.000098 0.000036 0.127584 -0.317916 -2.470934 0.319586 -1.810040 -1.611041 0.631200 -1.979864 -0.986036 1.033273 -1.711855 -0.615647 1.632004 -1.250473 0.963037 
0.000000 0.000000 0.000000 0.000006 -0.000000 -0.000000 -0.000044 -0.000000 -0.000000 0.037997 -0.056410 -0.004092 0.000003 0.000006 -0.000057 -0.032696 0.048696 -0.003006 -0.269862 -0.111274 0.035534 -0.313178 -0.069304 -0.026078 -0.181138 -0.034503 -0.055575 0.236199 0.080716 -0.054975 0.021046 -0.028331 0.338391 0.153789 -2.491716 -1.254596 1.474397 2.169523 -0.960844 -0.000018 -0.000049 -0.000104 0.001498 -0.000168 0.000006 0.000345 -0.012591 -0.023450 -0.000100 0.000095 0.000002 0.000221 0.011335 0.025316 -0.000006 -0.000073 0.000028 -0.000008 0.000078 -0.000112 0.000028 0.000114 -0.000006 -0.000647 -0.016830 -0.026458 0.000003 -0.000000 0.000001 -0.000175 0.014455 0.027603 -0.000004 0.000099 -0.000052 -0.000010 -0.000001 -0.000002 -0.114308 0.090921 -0.070592 0.262089 -0.004005 -0.044412 -0.147570 -0.086893 0.115198 -0.000019 0.000071 -0.000030 -0.000011 0.000000 0.000001 -0.127081 0.058002 -0.110388 0.263190 -0.001269 0.052588 -0.134277 -0.073644 0.048590 -0.000006 -0.000098 0.000035 0.181188 -0.369154 -3.392468 0.428584 -2.430269 -2.309759 0.854273 -2.688424 -1.497414 1.396250 -2.317519 -1.029086 2.179423 -1.675759 0.756288 
